<svg width="420" height="419" viewBox="0 0 420 419" fill="none" xmlns="http://www.w3.org/2000/svg">
<path d="M294.596 266.874C296.548 268.302 296.98 271.047 295.475 272.94C281.121 290.999 261.387 304.08 239.079 310.245C215.362 316.798 190.127 315.15 167.465 305.566C144.803 295.982 126.041 279.025 114.223 257.444C102.404 235.863 98.2206 210.922 102.351 186.666C106.481 162.409 118.683 140.259 136.978 123.805C155.274 107.352 178.59 97.5598 203.147 96.0165C227.704 94.4733 252.062 101.269 272.274 115.303C291.284 128.503 305.577 147.378 313.145 169.17C313.938 171.454 312.622 173.902 310.308 174.603V174.603C307.993 175.304 305.558 173.993 304.757 171.711C297.766 151.807 284.668 134.57 267.279 122.496C248.689 109.588 226.284 103.337 203.696 104.756C181.108 106.176 159.662 115.182 142.834 130.317C126.006 145.451 114.783 165.825 110.984 188.136C107.184 210.447 111.032 233.387 121.903 253.238C132.774 273.088 150.031 288.685 170.876 297.501C191.721 306.316 214.932 307.832 236.747 301.804C257.152 296.165 275.217 284.235 288.401 267.766C289.912 265.878 292.644 265.447 294.596 266.874V266.874Z" fill="#F8790A"/>
<path d="M80.2338 290.719C35.9219 220.306 58.0621 126.685 129.685 81.6121C201.309 36.539 295.292 57.0815 339.604 127.495C383.916 197.909 361.776 291.529 290.153 336.602C218.53 381.675 124.546 361.133 80.2338 290.719ZM333.25 131.494C291.109 64.531 201.73 44.9951 133.617 87.8596C65.5034 130.724 44.4481 219.757 86.5886 286.72C128.729 353.683 218.108 373.219 286.221 330.355C354.335 287.49 375.39 198.457 333.25 131.494Z" fill="#1CE5B6"/>
<path d="M135.87 181.2H148.195V199.39L139.1 207.04L135.87 203.98V181.2ZM165.875 181.2H178.2V201.685L168.17 209.93L178.2 218.005V237.385H165.875V223.02L156.95 215.455L147.515 222.935V237.385H135.87V218.43L153.635 203.98L156.865 206.105L165.875 197.775V181.2ZM182.291 181.2H193.936V195.82L206.431 202.705V215.54L182.291 202.79V181.2ZM212.296 181.2H224.536V236.79H189.431L196.571 226.335H212.296V181.2ZM241.546 226.25H256.676L268.746 237.215H228.966V225.23L259.821 193.355H236.871L230.751 181.71H271.466V195.14H270.786L241.546 226.25ZM275.555 181.2H287.2V195.82L299.695 202.705V215.54L275.555 202.79V181.2ZM305.56 181.2H317.8V236.79H282.695L289.835 226.335H305.56V181.2Z" fill="black"/>
</svg>
