<svg width="307" height="310" viewBox="0 0 307 310" fill="none" xmlns="http://www.w3.org/2000/svg">
<path d="M192.725 234.193C193.611 236.096 192.789 238.365 190.852 239.175C171.242 247.367 149.407 248.747 128.864 243.023C107.098 236.959 88.213 223.32 75.6129 204.565C63.0129 185.809 57.5261 163.169 60.1413 140.726C62.7565 118.283 73.3017 97.5112 89.8766 82.1549C106.452 66.7986 127.966 57.8673 150.544 56.9703C173.121 56.0733 195.276 63.2697 213.017 77.2626C230.758 91.2555 242.918 111.125 247.306 133.29C251.447 154.21 248.407 175.876 238.743 194.804C237.789 196.674 235.464 197.321 233.634 196.292C231.804 195.263 231.162 192.949 232.11 191.076C240.889 173.73 243.637 153.908 239.847 134.766C235.812 114.379 224.627 96.1027 208.309 83.232C191.991 70.3613 171.612 63.742 150.845 64.5671C130.079 65.3921 110.289 73.6072 95.0437 87.732C79.798 101.857 70.0985 120.962 67.693 141.606C65.2875 162.249 70.3343 183.073 81.9239 200.325C93.5134 217.577 110.884 230.122 130.904 235.699C149.702 240.937 169.676 239.708 187.64 232.276C189.58 231.474 191.838 232.29 192.725 234.193Z" fill="#F8790A"/>
<path d="M102.373 36.7397C101.67 35.1085 102.414 33.2113 104.058 32.5385C132.382 20.9483 163.927 19.8703 193.129 29.5603C223.352 39.5889 248.976 60.4585 265.175 88.236C281.374 116.014 287.028 148.781 281.071 180.363C275.115 211.945 257.959 240.16 232.838 259.692C207.716 279.224 176.363 288.723 144.688 286.4C113.013 284.076 83.2023 270.091 60.8745 247.078C38.5468 224.066 25.2438 193.616 23.4724 161.468C21.7614 130.414 30.9237 99.8471 49.2808 75.1377C50.35 73.6986 52.4002 73.4662 53.7957 74.5918C55.1622 75.6939 55.387 77.6868 54.3407 79.0966C36.9088 102.586 28.2094 131.634 29.8354 161.144C31.52 191.718 44.1712 220.675 65.4048 242.56C86.6384 264.445 114.988 277.745 145.111 279.955C175.234 282.164 205.051 273.131 228.941 254.556C252.832 235.981 269.147 209.148 274.812 179.114C280.476 149.079 275.099 117.918 259.694 91.5012C244.289 65.0848 219.92 45.2379 191.179 35.7007C163.471 26.5064 133.544 27.5061 106.655 38.4583C104.995 39.1343 103.083 38.3852 102.373 36.7397Z" fill="#1CE5B6"/>
<path d="M158.098 202.334C158.098 205.371 155.635 207.834 152.598 207.834C149.561 207.834 147.098 205.371 147.098 202.334V154.113H147.812L147.996 154.395L148.427 154.113H156.549L157.123 154.51L157.398 154.113H158.098V202.334ZM116.832 96.7412C119.374 95.0776 122.783 95.7895 124.446 98.331L152.721 141.528L148.073 148.257L152.598 151.383L148.427 154.113H147.812L115.242 104.354C113.579 101.813 114.291 98.4047 116.832 96.7412ZM182.647 98.2168C184.373 95.7177 187.799 95.0908 190.298 96.8173C192.797 98.544 193.423 101.97 191.696 104.469L157.398 154.113H156.549L152.598 151.383L157.2 148.371L152.721 141.528L182.647 98.2168Z" fill="black"/>
<path d="M68.9015 75.0951C69.2055 75.1599 69.5205 75.1957 69.8439 75.1957H70.5109C69.9829 75.3061 69.4346 75.2729 68.9015 75.0951ZM92.8683 66.2015C95.2458 66.3222 97.1368 68.2882 97.1368 70.6957C97.1368 73.1031 95.2458 75.0691 92.8683 75.1898L92.6368 75.1957H70.5109C71.3742 75.015 72.1812 74.4541 72.7697 73.5267L77.421 66.1957H92.6368L92.8683 66.2015ZM66.047 68.2816C65.4854 70.2317 65.9397 72.5668 67.297 74.0287C67.7837 74.5529 68.3338 74.9058 68.9015 75.0951C66.8688 74.6618 65.3439 72.8576 65.3439 70.6957C65.3439 69.8071 65.6025 68.9793 66.047 68.2816ZM93.7335 40.2562C93.6337 40.5317 93.5136 40.7981 93.3702 41.0502L93.2501 41.2494L77.421 66.1957H69.8439C68.2472 66.1957 66.8458 67.0279 66.047 68.2816C66.1851 67.8022 66.3829 67.3452 66.6456 66.931L82.5646 41.8422H90.3058L90.5372 41.8363C91.8168 41.7714 92.9547 41.1712 93.7335 40.2562ZM90.5372 32.848C92.9148 32.9686 94.8058 34.9346 94.8058 37.3422C94.8058 38.454 94.4018 39.471 93.7335 40.2562C94.4639 38.2413 94.04 35.704 92.5988 34.1517C90.9605 32.3875 88.6098 32.5438 87.254 34.4633L87.1261 34.6537L82.5646 41.8422H71.1827C68.6976 41.842 66.6828 39.8273 66.6827 37.3422C66.6827 34.857 68.6976 32.8423 71.1827 32.8422L90.3058 32.8422L90.5372 32.848Z" fill="black"/>
<path d="M92.8683 66.2015L92.8936 65.702L92.8809 65.7017L92.8683 66.2015ZM97.1368 70.6957L97.6368 70.6957V70.6957H97.1368ZM92.8683 75.1898L92.8809 75.6898L92.8936 75.6892L92.8683 75.1898ZM92.6368 75.1957V75.6958L92.6495 75.6955L92.6368 75.1957ZM72.7697 73.5267L73.1918 73.7946L73.1918 73.7946L72.7697 73.5267ZM92.6368 66.1957L92.6495 65.6957H92.6368V66.1957ZM67.297 74.0287L66.9306 74.3689L66.9306 74.3689L67.297 74.0287ZM65.3439 70.6957H64.8439V70.6957L65.3439 70.6957ZM93.3702 41.0502L93.7986 41.3084L93.8049 41.2974L93.3702 41.0502ZM93.2501 41.2494L93.6724 41.5173L93.6783 41.5076L93.2501 41.2494ZM69.8439 66.1957V65.6957V66.1957ZM66.6456 66.931L67.0678 67.1989H67.0678L66.6456 66.931ZM90.3058 41.8422V42.3423L90.3184 42.342L90.3058 41.8422ZM90.5372 41.8363L90.5499 42.3363L90.5626 42.3357L90.5372 41.8363ZM90.5372 32.848L90.5626 32.3485L90.5499 32.3482L90.5372 32.848ZM94.8058 37.3422L95.3058 37.3422V37.3422H94.8058ZM92.5988 34.1517L92.9652 33.8115L92.9651 33.8115L92.5988 34.1517ZM87.254 34.4633L86.8455 34.1747L86.839 34.1844L87.254 34.4633ZM87.1261 34.6537L86.7109 34.3748L86.7039 34.3858L87.1261 34.6537ZM71.1827 41.8422L71.1827 42.3422H71.1827V41.8422ZM66.6827 37.3422H66.1827V37.3422L66.6827 37.3422ZM71.1827 32.8422V32.3422H71.1827L71.1827 32.8422ZM90.3058 32.8422L90.3184 32.3422H90.3058V32.8422ZM68.9015 75.0951L68.7973 75.5841C69.1335 75.6558 69.4835 75.6957 69.8439 75.6957V75.1957V74.6957C69.5576 74.6957 69.2775 74.664 69.0057 74.6061L68.9015 75.0951ZM69.8439 75.1957V75.6957H70.5109V75.1957V74.6957H69.8439V75.1957ZM70.5109 75.1957L70.4085 74.7063C69.9699 74.798 69.5115 74.7715 69.0597 74.6208L68.9015 75.0951L68.7433 75.5694C69.3577 75.7743 69.9958 75.8143 70.6133 75.6851L70.5109 75.1957ZM92.8683 66.2015L92.8429 66.7009C94.9559 66.8081 96.6368 68.5559 96.6368 70.6957H97.1368H97.6368C97.6368 68.0205 95.5357 65.8363 92.8936 65.7022L92.8683 66.2015ZM97.1368 70.6957L96.6368 70.6957C96.6368 72.8354 94.9559 74.5832 92.8429 74.6905L92.8683 75.1898L92.8936 75.6892C95.5357 75.5551 97.6368 73.3708 97.6368 70.6957L97.1368 70.6957ZM92.8683 75.1898L92.8556 74.69L92.6242 74.6958L92.6368 75.1957L92.6495 75.6955L92.8809 75.6897L92.8683 75.1898ZM92.6368 75.1957V74.6957H70.5109V75.1957V75.6957H92.6368V75.1957ZM70.5109 75.1957L70.6133 75.6851C71.6246 75.4735 72.5403 74.8215 73.1918 73.7946L72.7697 73.5267L72.3475 73.2589C71.8222 74.0867 71.1238 74.5566 70.4085 74.7063L70.5109 75.1957ZM72.7697 73.5267L73.1918 73.7946L77.8432 66.4635L77.421 66.1957L76.9988 65.9278L72.3475 73.2589L72.7697 73.5267ZM77.421 66.1957V66.6957H92.6368V66.1957V65.6957H77.421V66.1957ZM92.6368 66.1957L92.6242 66.6955L92.8556 66.7014L92.8683 66.2015L92.8809 65.7017L92.6495 65.6958L92.6368 66.1957ZM66.047 68.2816L65.5665 68.1433C64.9621 70.2422 65.4407 72.7642 66.9306 74.3689L67.297 74.0287L67.6634 73.6885C66.4387 72.3694 66.0088 70.2213 66.5275 68.42L66.047 68.2816ZM67.297 74.0287L66.9306 74.3689C67.4694 74.9492 68.0895 75.3513 68.7433 75.5694L68.9015 75.0951L69.0597 74.6208C68.5781 74.4602 68.098 74.1565 67.6634 73.6885L67.297 74.0287ZM68.9015 75.0951L69.0057 74.6061C67.1988 74.2209 65.8439 72.6165 65.8439 70.6957L65.3439 70.6957L64.8439 70.6957C64.8439 73.0987 66.5388 75.1027 68.7973 75.5841L68.9015 75.0951ZM65.3439 70.6957H65.8439C65.8439 69.9056 66.0735 69.1705 66.4687 68.5503L66.047 68.2816L65.6253 68.013C65.1315 68.7881 64.8439 69.7087 64.8439 70.6957H65.3439ZM93.7335 40.2562L93.2634 40.0858C93.1721 40.3378 93.0635 40.5782 92.9356 40.803L93.3702 41.0502L93.8049 41.2974C93.9637 41.0181 94.0952 40.7255 94.2036 40.4266L93.7335 40.2562ZM93.3702 41.0502L92.942 40.792L92.8219 40.9912L93.2501 41.2494L93.6783 41.5076L93.7984 41.3083L93.3702 41.0502ZM93.2501 41.2494L92.8279 40.9815L76.9988 65.9278L77.421 66.1957L77.8432 66.4636L93.6723 41.5173L93.2501 41.2494ZM77.421 66.1957V65.6957H69.8439V66.1957V66.6957H77.421V66.1957ZM69.8439 66.1957V65.6957C68.0689 65.6957 66.5118 66.6214 65.6253 68.013L66.047 68.2816L66.4687 68.5503C67.1797 67.4343 68.4254 66.6957 69.8439 66.6957V66.1957ZM66.047 68.2816L66.5275 68.42C66.6539 67.981 66.8333 67.5685 67.0678 67.1989L66.6456 66.931L66.2234 66.6632C65.9324 67.1218 65.7163 67.6233 65.5665 68.1433L66.047 68.2816ZM66.6456 66.931L67.0678 67.1989L82.9868 42.11L82.5646 41.8422L82.1424 41.5743L66.2234 66.6632L66.6456 66.931ZM82.5646 41.8422V42.3422H90.3058V41.8422V41.3422H82.5646V41.8422ZM90.3058 41.8422L90.3184 42.342L90.5499 42.3361L90.5372 41.8363L90.5246 41.3365L90.2931 41.3423L90.3058 41.8422ZM90.5372 41.8363L90.5626 42.3357C91.9853 42.2635 93.25 41.5958 94.1143 40.5803L93.7335 40.2562L93.3528 39.9322C92.6595 40.7467 91.6482 41.2793 90.5119 41.3369L90.5372 41.8363ZM90.5372 32.848L90.5119 33.3474C92.6249 33.4546 94.3058 35.2023 94.3058 37.3422H94.8058H95.3058C95.3058 34.6669 93.2047 32.4827 90.5626 32.3487L90.5372 32.848ZM94.8058 37.3422L94.3058 37.3422C94.3058 38.3306 93.9472 39.2337 93.3528 39.9322L93.7335 40.2562L94.1143 40.5803C94.8565 39.7083 95.3058 38.5775 95.3058 37.3422L94.8058 37.3422ZM93.7335 40.2562L94.2036 40.4266C94.9919 38.2519 94.5453 35.5134 92.9652 33.8115L92.5988 34.1517L92.2323 34.4919C93.5347 35.8946 93.9358 38.2308 93.2634 40.0858L93.7335 40.2562ZM92.5988 34.1517L92.9651 33.8115C92.0577 32.8343 90.9201 32.3583 89.7901 32.427C88.6597 32.4957 87.6007 33.1058 86.8456 34.1748L87.254 34.4633L87.6624 34.7517C88.2632 33.9012 89.0574 33.4734 89.8508 33.4252C90.6446 33.3769 91.5016 33.705 92.2324 34.492L92.5988 34.1517ZM87.254 34.4633L86.839 34.1844L86.7111 34.3749L87.1261 34.6537L87.5411 34.9325L87.6691 34.7421L87.254 34.4633ZM87.1261 34.6537L86.7039 34.3858L82.1424 41.5743L82.5646 41.8422L82.9867 42.1101L87.5483 34.9216L87.1261 34.6537ZM82.5646 41.8422V41.3422H71.1827V41.8422V42.3422H82.5646V41.8422ZM71.1827 41.8422L71.1828 41.3422C68.9737 41.342 67.1828 39.5512 67.1827 37.3422L66.6827 37.3422L66.1827 37.3422C66.1828 40.1035 68.4215 42.342 71.1827 42.3422L71.1827 41.8422ZM66.6827 37.3422H67.1827C67.1827 35.1331 68.9737 33.3423 71.1828 33.3422L71.1827 32.8422L71.1827 32.3422C68.4215 32.3423 66.1827 34.5808 66.1827 37.3422H66.6827ZM71.1827 32.8422V33.3422H90.3058V32.8422V32.3422H71.1827V32.8422ZM90.3058 32.8422L90.2931 33.342L90.5246 33.3479L90.5372 32.848L90.5499 32.3482L90.3184 32.3423L90.3058 32.8422Z" fill="black"/>
<path d="M92.8683 66.2015L92.8936 65.702L92.8809 65.7017L92.8683 66.2015ZM97.1368 70.6957L97.6368 70.6957V70.6957H97.1368ZM92.8683 75.1898L92.8809 75.6898L92.8936 75.6892L92.8683 75.1898ZM92.6368 75.1957V75.6958L92.6495 75.6955L92.6368 75.1957ZM72.7697 73.5267L73.1918 73.7946L73.1918 73.7946L72.7697 73.5267ZM92.6368 66.1957L92.6495 65.6957H92.6368V66.1957ZM67.297 74.0287L66.9306 74.3689L66.9306 74.3689L67.297 74.0287ZM65.3439 70.6957H64.8439V70.6957L65.3439 70.6957ZM93.3702 41.0502L93.7986 41.3084L93.8049 41.2974L93.3702 41.0502ZM93.2501 41.2494L93.6724 41.5173L93.6783 41.5076L93.2501 41.2494ZM69.8439 66.1957V65.6957V66.1957ZM66.6456 66.931L67.0678 67.1989H67.0678L66.6456 66.931ZM90.3058 41.8422V42.3423L90.3184 42.342L90.3058 41.8422ZM90.5372 41.8363L90.5499 42.3363L90.5626 42.3357L90.5372 41.8363ZM90.5372 32.848L90.5626 32.3485L90.5499 32.3482L90.5372 32.848ZM94.8058 37.3422L95.3058 37.3422V37.3422H94.8058ZM92.5988 34.1517L92.9652 33.8115L92.9651 33.8115L92.5988 34.1517ZM87.254 34.4633L86.8455 34.1747L86.839 34.1844L87.254 34.4633ZM87.1261 34.6537L86.7109 34.3748L86.7039 34.3858L87.1261 34.6537ZM71.1827 41.8422L71.1827 42.3422H71.1827V41.8422ZM66.6827 37.3422H66.1827V37.3422L66.6827 37.3422ZM71.1827 32.8422V32.3422H71.1827L71.1827 32.8422ZM90.3058 32.8422L90.3184 32.3422H90.3058V32.8422ZM68.9015 75.0951L68.7973 75.5841C69.1335 75.6558 69.4835 75.6957 69.8439 75.6957V75.1957V74.6957C69.5576 74.6957 69.2775 74.664 69.0057 74.6061L68.9015 75.0951ZM69.8439 75.1957V75.6957H70.5109V75.1957V74.6957H69.8439V75.1957ZM70.5109 75.1957L70.4085 74.7063C69.9699 74.798 69.5115 74.7715 69.0597 74.6208L68.9015 75.0951L68.7433 75.5694C69.3577 75.7743 69.9958 75.8143 70.6133 75.6851L70.5109 75.1957ZM92.8683 66.2015L92.8429 66.7009C94.9559 66.8081 96.6368 68.5559 96.6368 70.6957H97.1368H97.6368C97.6368 68.0205 95.5357 65.8363 92.8936 65.7022L92.8683 66.2015ZM97.1368 70.6957L96.6368 70.6957C96.6368 72.8354 94.9559 74.5832 92.8429 74.6905L92.8683 75.1898L92.8936 75.6892C95.5357 75.5551 97.6368 73.3708 97.6368 70.6957L97.1368 70.6957ZM92.8683 75.1898L92.8556 74.69L92.6242 74.6958L92.6368 75.1957L92.6495 75.6955L92.8809 75.6897L92.8683 75.1898ZM92.6368 75.1957V74.6957H70.5109V75.1957V75.6957H92.6368V75.1957ZM70.5109 75.1957L70.6133 75.6851C71.6246 75.4735 72.5403 74.8215 73.1918 73.7946L72.7697 73.5267L72.3475 73.2589C71.8222 74.0867 71.1238 74.5566 70.4085 74.7063L70.5109 75.1957ZM72.7697 73.5267L73.1918 73.7946L77.8432 66.4635L77.421 66.1957L76.9988 65.9278L72.3475 73.2589L72.7697 73.5267ZM77.421 66.1957V66.6957H92.6368V66.1957V65.6957H77.421V66.1957ZM92.6368 66.1957L92.6242 66.6955L92.8556 66.7014L92.8683 66.2015L92.8809 65.7017L92.6495 65.6958L92.6368 66.1957ZM66.047 68.2816L65.5665 68.1433C64.9621 70.2422 65.4407 72.7642 66.9306 74.3689L67.297 74.0287L67.6634 73.6885C66.4387 72.3694 66.0088 70.2213 66.5275 68.42L66.047 68.2816ZM67.297 74.0287L66.9306 74.3689C67.4694 74.9492 68.0895 75.3513 68.7433 75.5694L68.9015 75.0951L69.0597 74.6208C68.5781 74.4602 68.098 74.1565 67.6634 73.6885L67.297 74.0287ZM68.9015 75.0951L69.0057 74.6061C67.1988 74.2209 65.8439 72.6165 65.8439 70.6957L65.3439 70.6957L64.8439 70.6957C64.8439 73.0987 66.5388 75.1027 68.7973 75.5841L68.9015 75.0951ZM65.3439 70.6957H65.8439C65.8439 69.9056 66.0735 69.1705 66.4687 68.5503L66.047 68.2816L65.6253 68.013C65.1315 68.7881 64.8439 69.7087 64.8439 70.6957H65.3439ZM93.7335 40.2562L93.2634 40.0858C93.1721 40.3378 93.0635 40.5782 92.9356 40.803L93.3702 41.0502L93.8049 41.2974C93.9637 41.0181 94.0952 40.7255 94.2036 40.4266L93.7335 40.2562ZM93.3702 41.0502L92.942 40.792L92.8219 40.9912L93.2501 41.2494L93.6783 41.5076L93.7984 41.3083L93.3702 41.0502ZM93.2501 41.2494L92.8279 40.9815L76.9988 65.9278L77.421 66.1957L77.8432 66.4636L93.6723 41.5173L93.2501 41.2494ZM77.421 66.1957V65.6957H69.8439V66.1957V66.6957H77.421V66.1957ZM69.8439 66.1957V65.6957C68.0689 65.6957 66.5118 66.6214 65.6253 68.013L66.047 68.2816L66.4687 68.5503C67.1797 67.4343 68.4254 66.6957 69.8439 66.6957V66.1957ZM66.047 68.2816L66.5275 68.42C66.6539 67.981 66.8333 67.5685 67.0678 67.1989L66.6456 66.931L66.2234 66.6632C65.9324 67.1218 65.7163 67.6233 65.5665 68.1433L66.047 68.2816ZM66.6456 66.931L67.0678 67.1989L82.9868 42.11L82.5646 41.8422L82.1424 41.5743L66.2234 66.6632L66.6456 66.931ZM82.5646 41.8422V42.3422H90.3058V41.8422V41.3422H82.5646V41.8422ZM90.3058 41.8422L90.3184 42.342L90.5499 42.3361L90.5372 41.8363L90.5246 41.3365L90.2931 41.3423L90.3058 41.8422ZM90.5372 41.8363L90.5626 42.3357C91.9853 42.2635 93.25 41.5958 94.1143 40.5803L93.7335 40.2562L93.3528 39.9322C92.6595 40.7467 91.6482 41.2793 90.5119 41.3369L90.5372 41.8363ZM90.5372 32.848L90.5119 33.3474C92.6249 33.4546 94.3058 35.2023 94.3058 37.3422H94.8058H95.3058C95.3058 34.6669 93.2047 32.4827 90.5626 32.3487L90.5372 32.848ZM94.8058 37.3422L94.3058 37.3422C94.3058 38.3306 93.9472 39.2337 93.3528 39.9322L93.7335 40.2562L94.1143 40.5803C94.8565 39.7083 95.3058 38.5775 95.3058 37.3422L94.8058 37.3422ZM93.7335 40.2562L94.2036 40.4266C94.9919 38.2519 94.5453 35.5134 92.9652 33.8115L92.5988 34.1517L92.2323 34.4919C93.5347 35.8946 93.9358 38.2308 93.2634 40.0858L93.7335 40.2562ZM92.5988 34.1517L92.9651 33.8115C92.0577 32.8343 90.9201 32.3583 89.7901 32.427C88.6597 32.4957 87.6007 33.1058 86.8456 34.1748L87.254 34.4633L87.6624 34.7517C88.2632 33.9012 89.0574 33.4734 89.8508 33.4252C90.6446 33.3769 91.5016 33.705 92.2324 34.492L92.5988 34.1517ZM87.254 34.4633L86.839 34.1844L86.7111 34.3749L87.1261 34.6537L87.5411 34.9325L87.6691 34.7421L87.254 34.4633ZM87.1261 34.6537L86.7039 34.3858L82.1424 41.5743L82.5646 41.8422L82.9867 42.1101L87.5483 34.9216L87.1261 34.6537ZM82.5646 41.8422V41.3422H71.1827V41.8422V42.3422H82.5646V41.8422ZM71.1827 41.8422L71.1828 41.3422C68.9737 41.342 67.1828 39.5512 67.1827 37.3422L66.6827 37.3422L66.1827 37.3422C66.1828 40.1035 68.4215 42.342 71.1827 42.3422L71.1827 41.8422ZM66.6827 37.3422H67.1827C67.1827 35.1331 68.9737 33.3423 71.1828 33.3422L71.1827 32.8422L71.1827 32.3422C68.4215 32.3423 66.1827 34.5808 66.1827 37.3422H66.6827ZM71.1827 32.8422V33.3422H90.3058V32.8422V32.3422H71.1827V32.8422ZM90.3058 32.8422L90.2931 33.342L90.5246 33.3479L90.5372 32.848L90.5499 32.3482L90.3184 32.3423L90.3058 32.8422Z" fill="black" fill-opacity="0.2"/>
<path d="M211.664 232.845L202.37 245.84L202.231 246.024C200.756 247.881 198.155 248.148 196.317 246.593C194.479 245.037 194.079 242.229 195.371 240.217L195.501 240.025L206.053 225.27L211.664 232.845ZM227.925 239.728L228.059 239.919C229.383 241.909 229.03 244.723 227.219 246.31C225.409 247.897 222.806 247.675 221.3 245.845L221.157 245.661L211.664 232.845L217.147 225.178L227.925 239.728ZM195.981 204.138C197.85 202.499 200.564 202.791 202.044 204.788L211.537 217.603L206.053 225.27L195.276 210.721C193.797 208.724 194.112 205.776 195.981 204.138ZM220.831 204.609C222.276 202.588 224.986 202.251 226.883 203.856C228.78 205.462 229.146 208.402 227.701 210.424L217.147 225.178L211.537 217.603L220.831 204.609Z" fill="black"/>
</svg>
