<svg width="183" height="57" viewBox="0 0 183 57" fill="none" xmlns="http://www.w3.org/2000/svg">
<mask id="path-1-inside-1_2007_12" fill="white">
<path d="M0.87 0.199999H13.195V18.39L4.1 26.04L0.87 22.98V0.199999ZM30.875 0.199999H43.2V20.685L33.17 28.93L43.2 37.005V56.385H30.875V42.02L21.95 34.455L12.515 41.935V56.385H0.87V37.43L18.635 22.98L21.865 25.105L30.875 16.775V0.199999ZM47.2906 0.199999H58.9356V14.82L71.4306 21.705V34.54L47.2906 21.79V0.199999ZM77.2956 0.199999H89.5356V55.79H54.4306L61.5706 45.335H77.2956V0.199999ZM106.546 45.25H121.676L133.746 56.215H93.9663V44.23L124.821 12.355H101.871L95.7513 0.709998H136.466V14.14H135.786L106.546 45.25ZM140.555 0.199999H152.2V14.82L164.695 21.705V34.54L140.555 21.79V0.199999ZM170.56 0.199999H182.8V55.79H147.695L154.835 45.335H170.56V0.199999Z"/>
</mask>
<path d="M0.87 0.199999H13.195V18.39L4.1 26.04L0.87 22.98V0.199999ZM30.875 0.199999H43.2V20.685L33.17 28.93L43.2 37.005V56.385H30.875V42.02L21.95 34.455L12.515 41.935V56.385H0.87V37.43L18.635 22.98L21.865 25.105L30.875 16.775V0.199999ZM47.2906 0.199999H58.9356V14.82L71.4306 21.705V34.54L47.2906 21.79V0.199999ZM77.2956 0.199999H89.5356V55.79H54.4306L61.5706 45.335H77.2956V0.199999ZM106.546 45.25H121.676L133.746 56.215H93.9663V44.23L124.821 12.355H101.871L95.7513 0.709998H136.466V14.14H135.786L106.546 45.25ZM140.555 0.199999H152.2V14.82L164.695 21.705V34.54L140.555 21.79V0.199999ZM170.56 0.199999H182.8V55.79H147.695L154.835 45.335H170.56V0.199999Z" fill="#F6F6F6"/>
<path d="M0.87 0.199999V-0.800001H-0.13V0.199999H0.87ZM13.195 0.199999H14.195V-0.800001H13.195V0.199999ZM13.195 18.39L13.8387 19.1553L14.195 18.8556V18.39H13.195ZM4.1 26.04L3.41226 26.766L4.06042 27.38L4.7437 26.8053L4.1 26.04ZM0.87 22.98H-0.13V23.4101L0.182255 23.7059L0.87 22.98ZM30.875 0.199999V-0.800001H29.875V0.199999H30.875ZM43.2 0.199999H44.2V-0.800001H43.2V0.199999ZM43.2 20.685L43.835 21.4575L44.2 21.1575V20.685H43.2ZM33.17 28.93L32.535 28.1575L31.5854 28.9381L32.5429 29.7089L33.17 28.93ZM43.2 37.005H44.2V36.5263L43.8271 36.2261L43.2 37.005ZM43.2 56.385V57.385H44.2V56.385H43.2ZM30.875 56.385H29.875V57.385H30.875V56.385ZM30.875 42.02H31.875V41.5567L31.5216 41.2572L30.875 42.02ZM21.95 34.455L22.5966 33.6922L21.9712 33.1621L21.3288 33.6714L21.95 34.455ZM12.515 41.935L11.8938 41.1514L11.515 41.4517V41.935H12.515ZM12.515 56.385V57.385H13.515V56.385H12.515ZM0.87 56.385H-0.13V57.385H0.87V56.385ZM0.87 37.43L0.238988 36.6542L-0.13 36.9544V37.43H0.87ZM18.635 22.98L19.1846 22.1446L18.5725 21.7418L18.004 22.2042L18.635 22.98ZM21.865 25.105L21.3154 25.9404L21.9692 26.3706L22.5439 25.8393L21.865 25.105ZM30.875 16.775L31.5539 17.5093L31.875 17.2124V16.775H30.875ZM0.87 0.199999V1.2H13.195V0.199999V-0.800001H0.87V0.199999ZM13.195 0.199999H12.195V18.39H13.195H14.195V0.199999H13.195ZM13.195 18.39L12.5513 17.6247L3.45631 25.2747L4.1 26.04L4.7437 26.8053L13.8387 19.1553L13.195 18.39ZM4.1 26.04L4.78774 25.314L1.55774 22.254L0.87 22.98L0.182255 23.7059L3.41226 26.766L4.1 26.04ZM0.87 22.98H1.87V0.199999H0.87H-0.13V22.98H0.87ZM30.875 0.199999V1.2H43.2V0.199999V-0.800001H30.875V0.199999ZM43.2 0.199999H42.2V20.685H43.2H44.2V0.199999H43.2ZM43.2 20.685L42.565 19.9125L32.535 28.1575L33.17 28.93L33.805 29.7025L43.835 21.4575L43.2 20.685ZM33.17 28.93L32.5429 29.7089L42.5729 37.7839L43.2 37.005L43.8271 36.2261L33.7971 28.1511L33.17 28.93ZM43.2 37.005H42.2V56.385H43.2H44.2V37.005H43.2ZM43.2 56.385V55.385H30.875V56.385V57.385H43.2V56.385ZM30.875 56.385H31.875V42.02H30.875H29.875V56.385H30.875ZM30.875 42.02L31.5216 41.2572L22.5966 33.6922L21.95 34.455L21.3034 35.2178L30.2284 42.7828L30.875 42.02ZM21.95 34.455L21.3288 33.6714L11.8938 41.1514L12.515 41.935L13.1362 42.7186L22.5712 35.2386L21.95 34.455ZM12.515 41.935H11.515V56.385H12.515H13.515V41.935H12.515ZM12.515 56.385V55.385H0.87V56.385V57.385H12.515V56.385ZM0.87 56.385H1.87V37.43H0.87H-0.13V56.385H0.87ZM0.87 37.43L1.50101 38.2058L19.266 23.7558L18.635 22.98L18.004 22.2042L0.238988 36.6542L0.87 37.43ZM18.635 22.98L18.0854 23.8154L21.3154 25.9404L21.865 25.105L22.4146 24.2696L19.1846 22.1446L18.635 22.98ZM21.865 25.105L22.5439 25.8393L31.5539 17.5093L30.875 16.775L30.1961 16.0407L21.1861 24.3707L21.865 25.105ZM30.875 16.775H31.875V0.199999H30.875H29.875V16.775H30.875ZM47.2906 0.199999V-0.800001H46.2906V0.199999H47.2906ZM58.9356 0.199999H59.9356V-0.800001H58.9356V0.199999ZM58.9356 14.82H57.9356V15.4107L58.453 15.6958L58.9356 14.82ZM71.4306 21.705H72.4306V21.1143L71.9132 20.8292L71.4306 21.705ZM71.4306 34.54L70.9636 35.4242L72.4306 36.1991V34.54H71.4306ZM47.2906 21.79H46.2906V22.3927L46.8236 22.6742L47.2906 21.79ZM77.2956 0.199999V-0.800001H76.2956V0.199999H77.2956ZM89.5356 0.199999H90.5356V-0.800001H89.5356V0.199999ZM89.5356 55.79V56.79H90.5356V55.79H89.5356ZM54.4306 55.79L53.6048 55.226L52.5368 56.79H54.4306V55.79ZM61.5706 45.335V44.335H61.0426L60.7448 44.771L61.5706 45.335ZM77.2956 45.335V46.335H78.2956V45.335H77.2956ZM47.2906 0.199999V1.2H58.9356V0.199999V-0.800001H47.2906V0.199999ZM58.9356 0.199999H57.9356V14.82H58.9356H59.9356V0.199999H58.9356ZM58.9356 14.82L58.453 15.6958L70.948 22.5808L71.4306 21.705L71.9132 20.8292L59.4182 13.9442L58.9356 14.82ZM71.4306 21.705H70.4306V34.54H71.4306H72.4306V21.705H71.4306ZM71.4306 34.54L71.8977 33.6558L47.7577 20.9058L47.2906 21.79L46.8236 22.6742L70.9636 35.4242L71.4306 34.54ZM47.2906 21.79H48.2906V0.199999H47.2906H46.2906V21.79H47.2906ZM77.2956 0.199999V1.2H89.5356V0.199999V-0.800001H77.2956V0.199999ZM89.5356 0.199999H88.5356V55.79H89.5356H90.5356V0.199999H89.5356ZM89.5356 55.79V54.79H54.4306V55.79V56.79H89.5356V55.79ZM54.4306 55.79L55.2564 56.354L62.3964 45.899L61.5706 45.335L60.7448 44.771L53.6048 55.226L54.4306 55.79ZM61.5706 45.335V46.335H77.2956V45.335V44.335H61.5706V45.335ZM77.2956 45.335H78.2956V0.199999H77.2956H76.2956V45.335H77.2956ZM106.546 45.25L105.818 44.5651L104.234 46.25H106.546V45.25ZM121.676 45.25L122.349 44.5098L122.063 44.25H121.676V45.25ZM133.746 56.215V57.215H136.334L134.419 55.4748L133.746 56.215ZM93.9663 56.215H92.9663V57.215H93.9663V56.215ZM93.9663 44.23L93.2477 43.5345L92.9663 43.8253V44.23H93.9663ZM124.821 12.355L125.54 13.0505L127.181 11.355H124.821V12.355ZM101.871 12.355L100.986 12.8202L101.267 13.355H101.871V12.355ZM95.7513 0.709998V-0.290002H94.096L94.8661 1.17521L95.7513 0.709998ZM136.466 0.709998H137.466V-0.290002H136.466V0.709998ZM136.466 14.14V15.14H137.466V14.14H136.466ZM135.786 14.14V13.14H135.354L135.058 13.4551L135.786 14.14ZM106.546 45.25V46.25H121.676V45.25V44.25H106.546V45.25ZM121.676 45.25L121.004 45.9902L133.074 56.9552L133.746 56.215L134.419 55.4748L122.349 44.5098L121.676 45.25ZM133.746 56.215V55.215H93.9663V56.215V57.215H133.746V56.215ZM93.9663 56.215H94.9663V44.23H93.9663H92.9663V56.215H93.9663ZM93.9663 44.23L94.6848 44.9255L125.54 13.0505L124.821 12.355L124.103 11.6595L93.2477 43.5345L93.9663 44.23ZM124.821 12.355V11.355H101.871V12.355V13.355H124.821V12.355ZM101.871 12.355L102.756 11.8898L96.6365 0.244784L95.7513 0.709998L94.8661 1.17521L100.986 12.8202L101.871 12.355ZM95.7513 0.709998V1.71H136.466V0.709998V-0.290002H95.7513V0.709998ZM136.466 0.709998H135.466V14.14H136.466H137.466V0.709998H136.466ZM136.466 14.14V13.14H135.786V14.14V15.14H136.466V14.14ZM135.786 14.14L135.058 13.4551L105.818 44.5651L106.546 45.25L107.275 45.9349L136.515 14.8249L135.786 14.14ZM140.555 0.199999V-0.800001H139.555V0.199999H140.555ZM152.2 0.199999H153.2V-0.800001H152.2V0.199999ZM152.2 14.82H151.2V15.4107L151.717 15.6958L152.2 14.82ZM164.695 21.705H165.695V21.1143L165.177 20.8292L164.695 21.705ZM164.695 34.54L164.228 35.4242L165.695 36.1991V34.54H164.695ZM140.555 21.79H139.555V22.3927L140.088 22.6742L140.555 21.79ZM170.56 0.199999V-0.800001H169.56V0.199999H170.56ZM182.8 0.199999H183.8V-0.800001H182.8V0.199999ZM182.8 55.79V56.79H183.8V55.79H182.8ZM147.695 55.79L146.869 55.226L145.801 56.79H147.695V55.79ZM154.835 45.335V44.335H154.307L154.009 44.771L154.835 45.335ZM170.56 45.335V46.335H171.56V45.335H170.56ZM140.555 0.199999V1.2H152.2V0.199999V-0.800001H140.555V0.199999ZM152.2 0.199999H151.2V14.82H152.2H153.2V0.199999H152.2ZM152.2 14.82L151.717 15.6958L164.212 22.5808L164.695 21.705L165.177 20.8292L152.682 13.9442L152.2 14.82ZM164.695 21.705H163.695V34.54H164.695H165.695V21.705H164.695ZM164.695 34.54L165.162 33.6558L141.022 20.9058L140.555 21.79L140.088 22.6742L164.228 35.4242L164.695 34.54ZM140.555 21.79H141.555V0.199999H140.555H139.555V21.79H140.555ZM170.56 0.199999V1.2H182.8V0.199999V-0.800001H170.56V0.199999ZM182.8 0.199999H181.8V55.79H182.8H183.8V0.199999H182.8ZM182.8 55.79V54.79H147.695V55.79V56.79H182.8V55.79ZM147.695 55.79L148.521 56.354L155.661 45.899L154.835 45.335L154.009 44.771L146.869 55.226L147.695 55.79ZM154.835 45.335V46.335H170.56V45.335V44.335H154.835V45.335ZM170.56 45.335H171.56V0.199999H170.56H169.56V45.335H170.56Z" fill="#1CE5B6" mask="url(#path-1-inside-1_2007_12)"/>
</svg>
